name analog
datacolumns 19
datarows 55
range 0.0 0.027
endheader
time	ground_force_vx	ground_force_vy	ground_force_vz	ground_force_px	ground_force_py	ground_force_pz	l_ground_force_vx	l_ground_force_vy	l_ground_force_vz	l_ground_force_px	l_ground_force_py	l_ground_force_pz	ground_torque_x	ground_torque_y	ground_torque_z	l_ground_torque_x	l_ground_torque_y	l_ground_torque_z
0.0	-0.0	-0.0	-0.0	3.346566677093506	41.98042297363281	-454.1986999511719	3.155827522277832	-27.06665802001953	-171.9519805908203	-0.0	-0.0	-0.0	-0.0	-0.0	-0.0	48891.171875	-8717.310546875	-348.854248046875
0.0005	-0.0	-0.0	-0.0	3.1703152656555176	41.39995956420898	-446.40179443359375	3.2797775268554688	-27.826351165771484	-174.92495727539062	-0.0	-0.0	-0.0	-0.0	-0.0	-0.0	50015.95703125	-8794.212890625	-359.0173645019531
0.001	-0.0	-0.0	-0.0	2.500002384185791	40.697509765625	-439.36419677734375	3.325453281402588	-28.527904510498047	-177.54832458496094	-0.0	-0.0	-0.0	-0.0	-0.0	-0.0	50749.12109375	-8847.4619140625	-227.76296997070312
0.0015	-0.0	-0.0	-0.0	2.493969440460205	39.75215911865234	-431.9312744140625	3.584886074066162	-29.807445526123047	-181.9346466064453	-0.0	-0.0	-0.0	-0.0	-0.0	-0.0	51986.1796875	-9179.4599609375	-288.71697998046875
0.002	-0.0	-0.0	-0.0	1.8259981870651243	38.77360153198242	-425.7398376464844	3.7258529663085938	-30.42357444763184	-184.8715057373047	-0.0	-0.0	-0.0	-0.0	-0.0	-0.0	52547.1484375	-9230.5166015625	-285.7958679199219
0.0025	-0.0	-0.0	-0.0	1.4692853689193726	37.70216369628906	-421.7181396484375	3.2843546867370605	-30.908496856689453	-186.6336669921875	-0.0	-0.0	-0.0	-0.0	-0.0	-0.0	53203.1875	-9514.158203125	-360.10858154296875
0.003	-0.0	-0.0	-0.0	0.759112536907196	37.38773727416992	-416.04595947265625	2.710456132888794	-31.309085845947266	-190.28762817382807	-0.0	-0.0	-0.0	-0.0	-0.0	-0.0	54287.0546875	-9514.0458984375	-510.3135070800781
0.0035	-0.0	-0.0	-0.0	0.6260015368461609	36.99217224121094	-412.1610107421875	2.791651725769043	-31.399267196655277	-191.49888610839844	-0.0	-0.0	-0.0	-0.0	-0.0	-0.0	54854.6015625	-9602.0048828125	-628.9348754882812
0.004	-0.0	-0.0	-0.0	0.1770081222057342	36.49819564819336	-409.3411254882813	2.619534730911255	-31.619163513183597	-193.59446716308597	-0.0	-0.0	-0.0	-0.0	-0.0	-0.0	55426.00390625	-9666.73046875	-645.3755493164062
0.0045000000000000005	-0.0	-0.0	-0.0	-0.1784210205078125	36.22956848144531	-406.5101318359375	2.7983789443969727	-31.7460880279541	-196.22320556640625	-0.0	-0.0	-0.0	-0.0	-0.0	-0.0	55995.44140625	-9859.2158203125	-701.8442993164062
0.005	-0.0	-0.0	-0.0	-0.4924260377883911	36.453155517578125	-402.7994079589844	2.5304746627807617	-31.881187438964844	-198.14645385742188	-0.0	-0.0	-0.0	-0.0	-0.0	-0.0	57193.73046875	-9990.85546875	-881.1401977539062
0.0055	-0.0	-0.0	-0.0	-0.4901412427425384	36.500450134277344	-399.4424133300781	2.3051469326019287	-32.0132942199707	-201.45523071289065	-0.0	-0.0	-0.0	-0.0	-0.0	-0.0	57797.48828125	-10206.4189453125	-881.3582153320312
0.006	-0.0	-0.0	-0.0	-0.3587385416030884	36.14095687866211	-397.32366943359375	2.438922166824341	-32.14785385131836	-205.3060607910156	-0.0	-0.0	-0.0	-0.0	-0.0	-0.0	59029.421875	-10457.6884765625	-896.7698364257812
0.006500000000000001	-0.0	-0.0	-0.0	-0.088380254805088	36.18694305419922	-394.6703796386719	2.041479587554932	-32.94286346435547	-209.67222595214844	-0.0	-0.0	-0.0	-0.0	-0.0	-0.0	60461.07421875	-10564.0361328125	-836.7518920898438
0.007	-0.0	-0.0	-0.0	-0.1791056096553802	36.31961441040039	-390.611572265625	1.8180776834487915	-33.69325256347656	-214.3829803466797	-0.0	-0.0	-0.0	-0.0	-0.0	-0.0	61860.4765625	-10752.6298828125	-1060.83349609375
0.0075	-0.0	-0.0	-0.0	-0.222726285457611	36.54346466064453	-389.7281188964844	1.5071806907653809	-34.224205017089844	-220.3040008544922	-0.0	-0.0	-0.0	-0.0	-0.0	-0.0	63281.72265625	-11350.0126953125	-1089.90576171875
0.008	-0.0	-0.0	-0.0	-0.3100550174713135	36.54298400878906	-386.5602416992188	1.41937255859375	-34.801883697509766	-225.72496032714844	-0.0	-0.0	-0.0	-0.0	-0.0	-0.0	65132.484375	-11759.625	-1135.063720703125
0.0085	-0.0	-0.0	-0.0	-0.1332617104053497	36.94584655761719	-384.787353515625	1.6414862871170044	-35.417667388916016	-230.9677734375	-0.0	-0.0	-0.0	-0.0	-0.0	-0.0	67183.375	-12125.34765625	-1193.93994140625
0.009000000000000001	-0.0	-0.0	-0.0	0.044479627162218	36.453834533691406	-380.7250061035156	1.641427516937256	-36.08024215698242	-235.6795196533203	-0.0	-0.0	-0.0	-0.0	-0.0	-0.0	68576.375	-12240.7861328125	-1105.9383544921875
0.0095	-0.0	-0.0	-0.0	0.4460525512695312	36.364891052246094	-380.1988525390625	1.4201947450637815	-36.60954666137695	-243.0079040527344	-0.0	-0.0	-0.0	-0.0	-0.0	-0.0	70360.046875	-12861.6416015625	-1046.2552490234375
0.01	-0.0	-0.0	-0.0	0.2230167984962463	36.63261413574219	-377.549560546875	1.0642043352127075	-37.49239730834961	-246.84890747070312	-0.0	-0.0	-0.0	-0.0	-0.0	-0.0	72127.28125	-12880.2666015625	-1091.23193359375
0.0105	-0.0	-0.0	-0.0	0.6244075894355774	36.36520385742188	-375.2540893554688	1.020053744316101	-38.28733444213867	-252.08935546875	-0.0	-0.0	-0.0	-0.0	-0.0	-0.0	73759.8984375	-13346.8291015625	-1269.6004638671875
0.011	-0.0	-0.0	-0.0	0.668549656867981	36.27586364746094	-373.1333618164063	0.9316067695617676	-38.243194580078125	-256.1036376953125	-0.0	-0.0	-0.0	-0.0	-0.0	-0.0	74948.7421875	-13641.2607421875	-1299.452880859375
0.0115	-0.0	-0.0	-0.0	1.0247583389282229	36.40960693359375	-369.9579772949219	0.7096621990203857	-38.8173942565918	-260.2922058105469	-0.0	-0.0	-0.0	-0.0	-0.0	-0.0	76039.6875	-13768.6806640625	-1373.9088134765625
0.012	-0.0	-0.0	-0.0	1.4730937480926514	35.91999816894531	-365.7169494628906	1.0201044082641602	-39.25905990600586	-263.7848815917969	-0.0	-0.0	-0.0	-0.0	-0.0	-0.0	77056.8203125	-13954.1787109375	-1403.54931640625
0.0125	-0.0	-0.0	-0.0	1.3830448389053345	35.43074417114258	-363.2444458007813	0.7539144158363342	-39.65644073486328	-266.74981689453125	-0.0	-0.0	-0.0	-0.0	-0.0	-0.0	77906.5390625	-14259.59765625	-1492.8236083984375
0.013000000000000001	-0.0	-0.0	-0.0	2.0082592964172363	35.076560974121094	-360.6021423339844	0.5771780014038086	-39.92177581787109	-269.3697509765625	-0.0	-0.0	-0.0	-0.0	-0.0	-0.0	78978.703125	-14238.99609375	-1403.690673828125
0.0135	-0.0	-0.0	-0.0	2.139396905899048	34.67255401611328	-356.8866882324219	0.6645556688308716	-40.23078536987305	-273.212158203125	-0.0	-0.0	-0.0	-0.0	-0.0	-0.0	79990.2109375	-14524.3408203125	-1374.291748046875
0.014	-0.0	-0.0	-0.0	2.809674024581909	34.314292907714844	-351.94561767578125	0.7983970642089844	-40.80341720581055	-276.5257263183594	-0.0	-0.0	-0.0	-0.0	-0.0	-0.0	81112.5859375	-14835.876953125	-1359.61083984375
0.0145	-0.0	-0.0	-0.0	2.8998420238494877	33.689292907714844	-349.29498291015625	0.8864188194274902	-41.11408996582031	-278.6229858398437	-0.0	-0.0	-0.0	-0.0	-0.0	-0.0	81954.7109375	-15034.7568359375	-1359.4111328125
0.015	-0.0	-0.0	-0.0	3.166399955749512	33.0673828125	-345.57977294921875	1.332329511642456	-41.37995529174805	-282.8095397949219	-0.0	-0.0	-0.0	-0.0	-0.0	-0.0	82932.734375	-15094.5234375	-1345.28125
0.0155	-0.0	-0.0	-0.0	3.833522081375122	32.97319412231445	-342.7636413574219	1.1942647695541382	-41.8198471069336	-286.83367919921875	-0.0	-0.0	-0.0	-0.0	-0.0	-0.0	84179.6796875	-15685.2001953125	-1270.6536865234375
0.016	-0.0	-0.0	-0.0	4.2821044921875	32.890499114990234	-338.0151062011719	0.974750816822052	-42.26245880126953	-288.9250793457031	-0.0	-0.0	-0.0	-0.0	-0.0	-0.0	85195.890625	-15668.2236328125	-1270.941650390625
0.0165	-0.0	-0.0	-0.0	4.2821044921875	32.40414047241211	-334.8382873535156	1.1958205699920654	-42.260162353515625	-292.0676574707031	-0.0	-0.0	-0.0	-0.0	-0.0	-0.0	85859.9296875	-15884.9765625	-1181.81103515625
0.017	-0.0	-0.0	-0.0	4.54650354385376	31.91191291809082	-332.1817321777344	1.3319625854492188	-42.21906661987305	-297.30517578125	-0.0	-0.0	-0.0	-0.0	-0.0	-0.0	86883.3828125	-15962.8330078125	-1048.8876953125
0.0175	-0.0	-0.0	-0.0	4.322305202484131	31.957651138305664	-329.64813232421875	1.2419509887695312	-42.96922302246094	-299.0512084960937	-0.0	-0.0	-0.0	-0.0	-0.0	-0.0	87783.3046875	-16289.4951171875	-1167.411865234375
0.018000000000000002	-0.0	-0.0	-0.0	4.058155059814453	31.81770896911621	-322.60430908203125	1.5080833435058594	-43.28067398071289	-302.5429077148437	-0.0	-0.0	-0.0	-0.0	-0.0	-0.0	89056.15625	-16591.357421875	-1091.890869140625
0.0185	-0.0	-0.0	-0.0	3.832186698913574	31.237308502197266	-320.1690979003906	1.4209880828857422	-43.89266586303711	-305.6726989746094	-0.0	-0.0	-0.0	-0.0	-0.0	-0.0	90048.78125	-16680.9375	-1225.823486328125
0.019	-0.0	-0.0	-0.0	3.4771316051483154	30.884721755981445	-315.5704040527344	0.8853474259376526	-44.29595565795898	-308.9853515625	-0.0	-0.0	-0.0	-0.0	-0.0	-0.0	91001.3984375	-17034.5234375	-1301.3016357421875
0.0195	-0.0	-0.0	-0.0	3.657630920410156	30.74340057373047	-313.63250732421875	0.7115658521652222	-44.60432434082031	-312.1267395019531	-0.0	-0.0	-0.0	-0.0	-0.0	-0.0	91842.484375	-17101.587890625	-1241.56689453125
0.02	-0.0	-0.0	-0.0	3.3923134803771973	29.90440559387207	-309.0232849121094	0.6603437662124634	-44.91654586791992	-314.942626953125	-0.0	-0.0	-0.0	-0.0	-0.0	-0.0	92586.328125	-17159.333984375	-1302.9925537109375
0.0205	-0.0	-0.0	-0.0	3.081405639648437	30.176706314086918	-306.0256042480469	0.8892166614532471	-45.04196548461914	-318.6133117675781	-0.0	-0.0	-0.0	-0.0	-0.0	-0.0	93751.75	-17439.30078125	-1227.7391357421875
0.021	-0.0	-0.0	-0.0	2.808857679367065	29.45886993408203	-302.6852722167969	0.7961708307266235	-45.97698211669922	-320.870361328125	-0.0	-0.0	-0.0	-0.0	-0.0	-0.0	94465.046875	-17582.80859375	-1285.9212646484375
0.021500000000000002	-0.0	-0.0	-0.0	2.9412543773651123	29.188861846923828	-298.4584045410156	0.5825477838516235	-46.325904846191406	-323.49365234375	-0.0	-0.0	-0.0	-0.0	-0.0	-0.0	95481.5546875	-17742.939453125	-1156.98583984375
0.022	-0.0	-0.0	-0.0	2.0867271423339844	28.518953323364254	-296.1358947753906	0.8033075332641602	-46.90126037597656	-327.1357727050781	-0.0	-0.0	-0.0	-0.0	-0.0	-0.0	96108.34375	-18053.724609375	-1196.2611083984375
0.0225	-0.0	-0.0	-0.0	2.4144790172576904	28.303245544433597	-292.74029541015625	0.707111120223999	-47.0377082824707	-328.3821716308594	-0.0	-0.0	-0.0	-0.0	-0.0	-0.0	97108.9453125	-18175.1875	-1170.925537109375
0.023	-0.0	-0.0	-0.0	2.0057148933410645	28.119121551513672	-290.4724426269531	0.6666908860206604	-47.20658874511719	-331.5141296386719	-0.0	-0.0	-0.0	-0.0	-0.0	-0.0	97414.6640625	-18317.744140625	-976.0523681640624
0.0235	-0.0	-0.0	-0.0	1.8335078954696653	28.300464630126957	-289.2172241210937	1.110287070274353	-47.25210571289063	-331.3559265136719	-0.0	-0.0	-0.0	-0.0	-0.0	-0.0	98041.0625	-18405.865234375	-1004.4888305664062
0.024	-0.0	-0.0	-0.0	1.6487716436386108	27.76249885559082	-287.1610107421875	0.7525811791419983	-47.51416397094727	-333.64312744140625	-0.0	-0.0	-0.0	-0.0	-0.0	-0.0	98389.265625	-18376.23828125	-990.4467163085938
0.0245	-0.0	-0.0	-0.0	1.9592704772949217	27.765798568725582	-284.63641357421875	1.1073670387268066	-48.08964920043945	-335.3541564941406	-0.0	-0.0	-0.0	-0.0	-0.0	-0.0	98952.625	-18673.298828125	-962.70654296875
0.025	-0.0	-0.0	-0.0	1.9093290567398071	27.801734924316406	-284.49334716796875	0.933039665222168	-47.61167144775391	-337.4736633300781	-0.0	-0.0	-0.0	-0.0	-0.0	-0.0	99419.3046875	-18794.646484375	-1004.64794921875
0.025500000000000002	-0.0	-0.0	-0.0	1.784210205078125	28.197097778320312	-281.48443603515625	0.9265166521072388	-47.82783508300781	-338.67706298828125	-0.0	-0.0	-0.0	-0.0	-0.0	-0.0	100087.2109375	-19061.7421875	-1107.9560546875
0.026000000000000002	-0.0	-0.0	-0.0	1.7303318977355957	27.93682289123535	-281.0871887207031	0.5884571075439453	-47.83461380004883	-342.4911499023437	-0.0	-0.0	-0.0	-0.0	-0.0	-0.0	100625.7734375	-19100.845703125	-1154.3624267578125
0.0265	-0.0	-0.0	-0.0	1.8923900127410889	27.487253189086918	-277.9375915527344	0.1313330829143524	-48.410640716552734	-343.22967529296875	-0.0	-0.0	-0.0	-0.0	-0.0	-0.0	101223.125	-18988.322265625	-1126.343017578125
0.027	-0.0	-0.0	-0.0	1.8852393627166748	27.14611053466797	-277.646240234375	0.0850997343659401	-48.48860931396485	-346.6933288574219	-0.0	-0.0	-0.0	-0.0	-0.0	-0.0	101987.859375	-19104.068359375	-1151.3023681640625
